<svg width="24" height="24" viewBox="0 0 24 24" fill="none" xmlns="http://www.w3.org/2000/svg">
    <path d="M3.5 14C4.60457 14 5.5 13.1046 5.5 12C5.5 10.8954 4.60457 10 3.5 10C2.39543 10 1.5 10.8954 1.5 12C1.5 13.1046 2.39543 14 3.5 14Z" fill="black" stroke="black"/>
    <path d="M12.5 14C13.6046 14 14.5 13.1046 14.5 12C14.5 10.8954 13.6046 10 12.5 10C11.3954 10 10.5 10.8954 10.5 12C10.5 13.1046 11.3954 14 12.5 14Z" fill="black" stroke="black"/>
    <path d="M21.5 14C22.6046 14 23.5 13.1046 23.5 12C23.5 10.8954 22.6046 10 21.5 10C20.3954 10 19.5 10.8954 19.5 12C19.5 13.1046 20.3954 14 21.5 14Z" fill="black" stroke="black"/>
</svg>
