<svg width="24" height="24" viewBox="0 0 24 24" fill="none" xmlns="http://www.w3.org/2000/svg">
<path d="M22.5019 11.1818L2.35922 1.09683C2.20135 1.01777 2.02402 0.986089 1.84858 1.00561C1.67315 1.02513 1.50709 1.09501 1.3704 1.20684C1.23986 1.3164 1.14243 1.46024 1.08905 1.6222C1.03568 1.78416 1.02847 1.95782 1.06826 2.12365L3.31846 10.4309C3.42238 10.8145 3.77053 11.0809 4.168 11.0809H12.9329C13.4392 11.0809 13.8497 11.4914 13.8497 11.9977V11.9977C13.8497 12.5041 13.4392 12.9145 12.9329 12.9145H4.16501C3.76891 12.9145 3.42158 13.179 3.31627 13.5609L1.03164 21.8443C0.994304 21.9828 0.989946 22.1281 1.01891 22.2686C1.04788 22.4091 1.10936 22.5408 1.19842 22.6531C1.28747 22.7655 1.40161 22.8554 1.53166 22.9155C1.66171 22.9757 1.80404 23.0044 1.94721 22.9995C2.09054 22.9986 2.23166 22.964 2.35922 22.8986L22.5019 12.8137C22.6519 12.7367 22.7777 12.6199 22.8656 12.4759C22.9535 12.3319 23 12.1665 23 11.9977C23 11.829 22.9535 11.6635 22.8656 11.5195C22.7777 11.3756 22.6519 11.2587 22.5019 11.1818Z" fill="#F55749"/>
</svg>
